<?xml version="1.0" encoding="utf-8"?>
<!-- Generator: Adobe Illustrator 19.1.0, SVG Export Plug-In . SVG Version: 6.00 Build 0)  -->
<svg version="1.1" id="Capa_1" xmlns="http://www.w3.org/2000/svg" xmlns:xlink="http://www.w3.org/1999/xlink" x="0px" y="0px"
	 viewBox="-180 272.7 249.3 249.3" style="enable-background:new -180 272.7 249.3 249.3;" xml:space="preserve">
<metadata><?xpacket begin="﻿" id="W5M0MpCehiHzreSzNTczkc9d"?>
<x:xmpmeta xmlns:x="adobe:ns:meta/" x:xmptk="Adobe XMP Core 5.6-c067 79.157747, 2015/03/30-23:40:42        ">
   <rdf:RDF xmlns:rdf="http://www.w3.org/1999/02/22-rdf-syntax-ns#">
      <rdf:Description rdf:about=""/>
   </rdf:RDF>
</x:xmpmeta>
                                                                                                    
                                                                                                    
                                                                                                    
                                                                                                    
                                                                                                    
                                                                                                    
                                                                                                    
                                                                                                    
                                                                                                    
                                                                                                    
                                                                                                    
                                                                                                    
                                                                                                    
                                                                                                    
                                                                                                    
                                                                                                    
                                                                                                    
                                                                                                    
                                                                                                    
                                                                                                    
                           
<?xpacket end="w"?></metadata>
<style type="text/css">
	.st0{fill:#FFFFFF;}
</style>
<path class="st0" d="M69.2,361.3c-0.9-17.6-8.4-34.1-20.9-46.5c-12.8-12.6-29.4-19.5-46.9-19.5c-26.2,0-44.7,20.2-54.7,31.1
	c-0.6,0.6-1.2,1.3-1.8,1.9c-0.3-0.4-0.6-0.7-0.9-1.1c-9.1-10.4-28.1-32-56-32c-17.5,0-34.1,6.9-46.9,19.5
	c-12.6,12.4-20,28.9-20.9,46.5c-0.9,17.5,3.5,32.6,14.4,49.1c9.8,14.8,35.2,38.2,54,53.8c19.3,16,44.8,35,56.3,35
	c11.7,0,37-19,56.3-35c18.7-15.5,43.9-38.9,53.8-53.9C62.1,399.3,70.4,383.7,69.2,361.3z M42.3,402.2c-7.2,10.9-27.3,31-50.2,50
	c-27.3,22.7-43.4,31.7-47.3,32c-3.9-0.4-20.1-9.4-47.5-32.2c-23-19.1-43.2-39.1-50.3-49.9c-9-13.7-12.7-26-11.9-40.1
	c1.5-28.5,25.2-51.8,52.9-51.8c21.1,0,36.4,17.5,44.7,26.9c4.8,5.5,7.5,8.6,12,8.6c4.6,0,7.6-3.3,13-9.2c9-9.8,24-26.2,43.6-26.2
	c27.6,0,51.3,23.2,52.9,51.8C55,376.4,51.4,388.4,42.3,402.2z"/>
</svg>
