<?xml version="1.0" encoding="utf-8"?>
<!-- Generator: Adobe Illustrator 19.1.0, SVG Export Plug-In . SVG Version: 6.00 Build 0)  -->
<svg version="1.1" id="Layer_1" xmlns="http://www.w3.org/2000/svg" xmlns:xlink="http://www.w3.org/1999/xlink" x="0px" y="0px"
	 viewBox="-283 375.3 43.5 43.5" style="enable-background:new -283 375.3 43.5 43.5;" xml:space="preserve">
<metadata><?xpacket begin="﻿" id="W5M0MpCehiHzreSzNTczkc9d"?>
<x:xmpmeta xmlns:x="adobe:ns:meta/" x:xmptk="Adobe XMP Core 5.6-c067 79.157747, 2015/03/30-23:40:42        ">
   <rdf:RDF xmlns:rdf="http://www.w3.org/1999/02/22-rdf-syntax-ns#">
      <rdf:Description rdf:about=""/>
   </rdf:RDF>
</x:xmpmeta>
                                                                                                    
                                                                                                    
                                                                                                    
                                                                                                    
                                                                                                    
                                                                                                    
                                                                                                    
                                                                                                    
                                                                                                    
                                                                                                    
                                                                                                    
                                                                                                    
                                                                                                    
                                                                                                    
                                                                                                    
                                                                                                    
                                                                                                    
                                                                                                    
                                                                                                    
                                                                                                    
                           
<?xpacket end="w"?></metadata>
<style type="text/css">
	.st0{clip-path:url(#SVGID_2_);fill:#FFFFFF;}
</style>
<g>
	<g>
		<defs>
			<rect id="SVGID_1_" x="-283" y="377.1" width="43.5" height="39.9"/>
		</defs>
		<clipPath id="SVGID_2_">
			<use xlink:href="#SVGID_1_"  style="overflow:visible;"/>
		</clipPath>
		<path class="st0" d="M-260.6,406.5c0,3-2,4.2-3.6,4.4c-0.8,0.1-2.5-0.5-2.5-2.1v-9.2c0-2.3,2-2.6,3.4-2.6h2.7V406.5z
			 M-244.8,407.2v-17.5c0-10.6-11.6-12.6-19.1-12.6c-4.9,0-16,1.3-16.3,9c-0.2,4,2.7,6.3,6,6.3c6.9,0,8.9-6.8,4.9-11
			c0.6-0.7,2.6-0.8,4.4-0.8c3.3,0.2,4.4,1.3,4.4,4.6v8.4c-9.3,0.1-22.5,1.6-22.5,13.2c0,6.5,5.2,10.2,10.8,10.2
			c5.6,0.1,9.6-1.5,13-5c1.7,3.5,4.9,5,9,5c5.9,0,10.6-3.1,10.6-9.5h-1.4C-241.2,410.2-244.8,411.2-244.8,407.2"/>
	</g>
</g>
</svg>
