<?xml version="1.0" encoding="utf-8"?>
<!-- Generator: Adobe Illustrator 19.1.0, SVG Export Plug-In . SVG Version: 6.00 Build 0)  -->
<svg version="1.1" id="Capa_1" xmlns="http://www.w3.org/2000/svg" xmlns:xlink="http://www.w3.org/1999/xlink" x="0px" y="0px"
	 viewBox="-67 158.3 476.7 476.7" style="enable-background:new -67 158.3 476.7 476.7;" xml:space="preserve">
<metadata><?xpacket begin="﻿" id="W5M0MpCehiHzreSzNTczkc9d"?>
<x:xmpmeta xmlns:x="adobe:ns:meta/" x:xmptk="Adobe XMP Core 5.6-c067 79.157747, 2015/03/30-23:40:42        ">
   <rdf:RDF xmlns:rdf="http://www.w3.org/1999/02/22-rdf-syntax-ns#">
      <rdf:Description rdf:about=""/>
   </rdf:RDF>
</x:xmpmeta>
                                                                                                    
                                                                                                    
                                                                                                    
                                                                                                    
                                                                                                    
                                                                                                    
                                                                                                    
                                                                                                    
                                                                                                    
                                                                                                    
                                                                                                    
                                                                                                    
                                                                                                    
                                                                                                    
                                                                                                    
                                                                                                    
                                                                                                    
                                                                                                    
                                                                                                    
                                                                                                    
                           
<?xpacket end="w"?></metadata>
<style type="text/css">
	.st0{fill:#FFFFFF;}
</style>
<g>
	<g>
		<g>
			<g>
				<path class="st0" d="M171.4,158.3C39.7,158.3-67,265-67,396.6C-67,528.3,39.7,635,171.4,635c131.7,0,238.4-106.7,238.4-238.4
					C409.7,265,303,158.3,171.4,158.3z M171.4,603.2c-113.9,0-206.6-92.7-206.6-206.6S57.5,190,171.4,190S378,282.7,378,396.6
					S285.3,603.2,171.4,603.2z"/>
				<path class="st0" d="M276.8,386.2l-122.6-97.1c-6.9-5.4-18.1-5.4-25,0l-0.2,0.2c-3.3,2.5-5.4,6-5.4,9.9v194.2
					c0,4,2.2,7.5,5.6,10l-0.1,0.1c6.9,5.4,18.1,5.4,25,0l123.2-97.3c6.9-5.4,6.9-14.2,0-19.6L276.8,386.2z"/>
			</g>
		</g>
	</g>
</g>
</svg>
