<?xml version="1.0" encoding="utf-8"?>
<!-- Generator: Adobe Illustrator 19.1.0, SVG Export Plug-In . SVG Version: 6.00 Build 0)  -->
<svg version="1.1" id="Capa_1" xmlns="http://www.w3.org/2000/svg" xmlns:xlink="http://www.w3.org/1999/xlink" x="0px" y="0px"
	 viewBox="-371 172.7 216.3 216.3" style="enable-background:new -371 172.7 216.3 216.3;" xml:space="preserve">
<metadata><?xpacket begin="﻿" id="W5M0MpCehiHzreSzNTczkc9d"?>
<x:xmpmeta xmlns:x="adobe:ns:meta/" x:xmptk="Adobe XMP Core 5.6-c067 79.157747, 2015/03/30-23:40:42        ">
   <rdf:RDF xmlns:rdf="http://www.w3.org/1999/02/22-rdf-syntax-ns#">
      <rdf:Description rdf:about=""/>
   </rdf:RDF>
</x:xmpmeta>
                                                                                                    
                                                                                                    
                                                                                                    
                                                                                                    
                                                                                                    
                                                                                                    
                                                                                                    
                                                                                                    
                                                                                                    
                                                                                                    
                                                                                                    
                                                                                                    
                                                                                                    
                                                                                                    
                                                                                                    
                                                                                                    
                                                                                                    
                                                                                                    
                                                                                                    
                                                                                                    
                           
<?xpacket end="w"?></metadata>
<style type="text/css">
	.st0{fill:#FFFFFF;}
</style>
<path class="st0" d="M-180.4,198.4c-16.5-16.5-38.5-25.6-61.9-25.6s-45.4,9.1-61.9,25.6c-16.5,16.5-25.6,38.5-25.6,61.9
	c0,17.8,5.3,34.8,15.1,49.2l-51.5,51.5c-6.4,6.4-6.4,16.8,0,23.2c3.1,3.1,7.2,4.8,11.6,4.8c4.4,0,8.5-1.7,11.6-4.8l51.5-51.5
	c14.4,9.8,31.4,15.1,49.2,15.1c23.4,0,45.4-9.1,61.9-25.6c16.5-16.5,25.6-38.5,25.6-61.9C-154.7,236.9-163.8,214.9-180.4,198.4z
	 M-187.4,315.1c-14.6,14.6-34.1,22.7-54.8,22.7c-20.7,0-40.2-8.1-54.8-22.7s-22.7-34.1-22.7-54.8c0-20.7,8.1-40.2,22.7-54.8
	c14.7-14.6,34.1-22.7,54.8-22.7c20.7,0,40.2,8.1,54.8,22.7c14.6,14.6,22.7,34.1,22.7,54.8C-164.7,281-172.8,300.5-187.4,315.1z
	 M-237.3,200.7c0,2.8-2.2,5-5,5c-30.1,0-54.6,24.5-54.6,54.6c0,2.8-2.2,5-5,5c-2.8,0-5-2.2-5-5c0-35.6,29-64.6,64.6-64.6
	C-239.5,195.7-237.3,197.9-237.3,200.7z"/>
</svg>
