<?xml version="1.0" encoding="utf-8"?>
<!-- Generator: Adobe Illustrator 19.1.0, SVG Export Plug-In . SVG Version: 6.00 Build 0)  -->
<svg version="1.1" id="Capa_1" xmlns="http://www.w3.org/2000/svg" xmlns:xlink="http://www.w3.org/1999/xlink" x="0px" y="0px"
	 viewBox="-49 141 512 512" style="enable-background:new -49 141 512 512;" xml:space="preserve">
<metadata><?xpacket begin="﻿" id="W5M0MpCehiHzreSzNTczkc9d"?>
<x:xmpmeta xmlns:x="adobe:ns:meta/" x:xmptk="Adobe XMP Core 5.6-c067 79.157747, 2015/03/30-23:40:42        ">
   <rdf:RDF xmlns:rdf="http://www.w3.org/1999/02/22-rdf-syntax-ns#">
      <rdf:Description rdf:about=""/>
   </rdf:RDF>
</x:xmpmeta>
                                                                                                    
                                                                                                    
                                                                                                    
                                                                                                    
                                                                                                    
                                                                                                    
                                                                                                    
                                                                                                    
                                                                                                    
                                                                                                    
                                                                                                    
                                                                                                    
                                                                                                    
                                                                                                    
                                                                                                    
                                                                                                    
                                                                                                    
                                                                                                    
                                                                                                    
                                                                                                    
                           
<?xpacket end="w"?></metadata>
<style type="text/css">
	.st0{fill:#FFFFFF;}
</style>
<g>
	<path class="st0" d="M463,238.2c-18.8,8.4-39.1,14-60.3,16.5c21.7-13,38.3-33.6,46.2-58.1c-20.3,12-42.8,20.8-66.7,25.5
		C363,201.7,335.7,189,305.5,189c-58,0-105,47-105,105c0,8.2,0.9,16.2,2.7,23.9c-87.3-4.4-164.7-46.2-216.5-109.8
		c-9,15.5-14.2,33.6-14.2,52.8c0,36.4,18.5,68.6,46.7,87.4c-17.2-0.5-33.4-5.3-47.6-13.1c0,0.4,0,0.9,0,1.3
		c0,50.9,36.2,93.3,84.3,103c-8.8,2.4-18.1,3.7-27.7,3.7c-6.8,0-13.3-0.7-19.8-1.9c13.4,41.7,52.2,72.1,98.1,72.9
		c-35.9,28.2-81.2,45-130.5,45c-8.5,0-16.8-0.5-25.1-1.5C-2.5,587.7,52.7,605,112,605c193.2,0,298.9-160.1,298.9-298.9
		c0-4.6-0.1-9.1-0.3-13.6C431.1,277.8,448.9,259.3,463,238.2z"/>
</g>
</svg>
