<?xml version="1.0" encoding="utf-8"?>
<!-- Generator: Adobe Illustrator 19.1.0, SVG Export Plug-In . SVG Version: 6.00 Build 0)  -->
<svg version="1.1" id="Layer_1" xmlns="http://www.w3.org/2000/svg" xmlns:xlink="http://www.w3.org/1999/xlink" x="0px" y="0px"
	 viewBox="0 0 148.1 148.1" style="enable-background:new 0 0 148.1 148.1;" xml:space="preserve">
<metadata><?xpacket begin="﻿" id="W5M0MpCehiHzreSzNTczkc9d"?>
<x:xmpmeta xmlns:x="adobe:ns:meta/" x:xmptk="Adobe XMP Core 5.6-c067 79.157747, 2015/03/30-23:40:42        ">
   <rdf:RDF xmlns:rdf="http://www.w3.org/1999/02/22-rdf-syntax-ns#">
      <rdf:Description rdf:about=""/>
   </rdf:RDF>
</x:xmpmeta>
                                                                                                    
                                                                                                    
                                                                                                    
                                                                                                    
                                                                                                    
                                                                                                    
                                                                                                    
                                                                                                    
                                                                                                    
                                                                                                    
                                                                                                    
                                                                                                    
                                                                                                    
                                                                                                    
                                                                                                    
                                                                                                    
                                                                                                    
                                                                                                    
                                                                                                    
                                                                                                    
                           
<?xpacket end="w"?></metadata>
<style type="text/css">
	.st0{fill:#FFFFFF;}
	.st1{clip-path:url(#SVGID_4_);fill:#FFFFFF;}
</style>
<g>
	<defs>
		<rect id="SVGID_1_" x="-118.3" y="1.7" width="266.4" height="85.9"/>
	</defs>
	<clipPath id="SVGID_2_">
		<use xlink:href="#SVGID_1_"  style="overflow:visible;"/>
	</clipPath>
</g>
<polygon class="st0" points="128.6,63.1 129.5,65.7 130,65.7 130.9,63.1 130.9,65.7 131.5,65.7 131.5,62.5 130.5,62.5 129.7,64.8 
	128.9,62.5 128,62.5 128,65.7 128.6,65.7 "/>
<polygon class="st0" points="125.8,65.7 126.4,65.7 126.4,63.1 127.5,63.1 127.5,62.5 124.7,62.5 124.7,63.1 125.8,63.1 "/>
<g>
	<defs>
		<rect id="SVGID_3_" x="-118.3" y="1.7" width="266.4" height="85.9"/>
	</defs>
	<clipPath id="SVGID_4_">
		<use xlink:href="#SVGID_3_"  style="overflow:visible;"/>
	</clipPath>
	<path class="st1" d="M2.8,69.9c-0.7-5.7,2.5-8.3,8.1-8.3c1.1,0,2.5,0.2,3.6,0.8c1.2,0.6,2,1.5,1.9,3.1c-0.1,1.6-1.4,2.6-3,2.6
		c-3.3,0-3.6-3.5-2.2-4.8c0.2-0.2,0-0.3-0.2-0.3c-0.2,0-0.4,0.1-0.5,0.1c-2.2,1.3-1.6,5.7,0.3,6.9h3V71h-3v12.3c0,1.8,0.2,2.8,2,2.9
		V87H1v-0.8c1.6,0,2-1.1,2-2.3V71H1v-1.1H2.8z"/>
	<path class="st1" d="M24.8,77.4v-5.7c0-0.5-0.8-0.8-1.4-0.8c-0.7,0-1.4,0.2-1.4,0.8v5.7H24.8z M22,79v4.6c0,1,1.3,1.4,2.3,1.4
		c2.6,0.2,5-1.4,6.9-3.7l0.8,0.6c-1.9,3.7-4.8,5.7-8.7,5.7c-5.5,0-9.9-3.1-9.9-9c0-5.5,4.4-9.2,9.7-9.2c5.5,0,8.8,4.1,8.8,9.6H22z"
		/>
	<path class="st1" d="M33.9,81.1h1.6c0.2,3.1,3.7,4.3,5.9,4.3c0.9,0,2-0.4,2-1.5c0-1.8-3.5-2.4-4.8-2.7c-2.7-1-5.2-2.4-5.2-5.6
		c0-4.2,4.4-6.1,8.5-6.1c1.2,0,2.6,0.2,3.7,0.7c0.9,0.3,1.7,0.4,1.8-0.6h1.4v6.3H48c-0.6-2.1-2.6-4.3-5.1-4.3
		c-0.9,0-2.4,0.4-2.5,1.6c-0.1,1.3,2.4,1.9,3.1,2.1c3.4,0.9,6.8,2.2,6.8,6c0,4.7-4.3,6.3-8.2,6.3c-1.7,0-3-0.3-4.6-1
		c-1.8-0.7-2.6-1.1-2.6,0.4h-0.9V81.1z"/>
	<path class="st1" d="M60.2,63.8v6.1h3.2V71h-3.2v11.4c0,0.7,0.1,1.6,1,1.6c0.9,0,1.7-0.9,2.3-2.3l0.9,0.3c-1,3.4-2.5,5.4-6.3,5.4
		c-3.2,0-5.4-1.4-5.4-4.8V71h-2v-1.1h0.4c3.1,0,5.2-3.7,6.1-6.1H60.2z"/>
	<path class="st1" d="M73.4,65.3c0,2.4-2.1,3.5-4.1,3.5c-2,0-4-1.1-4-3.5c0-2.4,2-3.6,3.9-3.6C71.3,61.6,73.4,62.7,73.4,65.3
		 M73.3,83.4c0,2.3,0.8,2.7,2,2.8V87H63.8v-0.8c1.2,0,2-0.5,2-2.8v-9.8c0-2-0.1-2.7-2-3v-0.8h9.5V83.4z"/>
	<path class="st1" d="M74.6,69.9h11.6v0.8c-1.6,0-1.8,1-1.4,2.2l2.9,8l2.3-6.8c1-3.3-0.8-3.5-1.6-3.5v-0.8h6.8v0.8
		c-1.2,0.1-1.9,0.9-2.2,2L88,87h-5.8l-4.8-12.8c-0.8-2.2-1.3-3.3-2.7-3.4V69.9z"/>
	<path class="st1" d="M102.9,78.4c-0.7,0-1.5,0.1-1.5,1.2v4.2c0,0.7,0.8,1,1.1,1c0.8-0.1,1.7-0.6,1.7-2v-4.4H102.9z M104.1,73
		c0-1.5-0.5-2-2-2.1c-0.8,0-1.7,0.1-2,0.4c1.8,1.9,0.9,5-2.2,5c-1.5,0-2.9-1.1-2.7-2.9c0.1-3.5,5.2-4.1,7.5-4.1
		c3.4,0,8.7,0.9,8.7,5.7v8c0,1.8,1.6,1.4,1.8,0.1h0.7c0,2.9-2.2,4.3-4.8,4.3c-1.9,0-3.4-0.7-4.1-2.3c-1.5,1.6-3.4,2.3-5.9,2.3
		c-2.6,0-4.9-1.7-4.9-4.7c0-5.3,6-5.9,10.2-6V73z"/>
	<path class="st1" d="M122.7,83.6c0,1.7,0.3,2.6,2,2.6V87h-11.5v-0.8c1.6-0.1,2-1,2-2.6V66.8c0-2.9-0.7-3.2-2-3.3v-0.8
		c3.1,0,6.4-0.2,9.5-0.5V83.6z"/>
</g>
</svg>
