<?xml version="1.0" encoding="utf-8"?>
<!-- Generator: Adobe Illustrator 19.1.0, SVG Export Plug-In . SVG Version: 6.00 Build 0)  -->
<svg version="1.1" id="Capa_1" xmlns="http://www.w3.org/2000/svg" xmlns:xlink="http://www.w3.org/1999/xlink" x="0px" y="0px"
	 viewBox="-242 334.5 125.5 125.5" style="enable-background:new -242 334.5 125.5 125.5;" xml:space="preserve">
<metadata><?xpacket begin="﻿" id="W5M0MpCehiHzreSzNTczkc9d"?>
<x:xmpmeta xmlns:x="adobe:ns:meta/" x:xmptk="Adobe XMP Core 5.6-c067 79.157747, 2015/03/30-23:40:42        ">
   <rdf:RDF xmlns:rdf="http://www.w3.org/1999/02/22-rdf-syntax-ns#">
      <rdf:Description rdf:about=""/>
   </rdf:RDF>
</x:xmpmeta>
                                                                                                    
                                                                                                    
                                                                                                    
                                                                                                    
                                                                                                    
                                                                                                    
                                                                                                    
                                                                                                    
                                                                                                    
                                                                                                    
                                                                                                    
                                                                                                    
                                                                                                    
                                                                                                    
                                                                                                    
                                                                                                    
                                                                                                    
                                                                                                    
                                                                                                    
                                                                                                    
                           
<?xpacket end="w"?></metadata>
<style type="text/css">
	.st0{fill:#FFFFFF;}
</style>
<g>
	<path class="st0" d="M-132.3,334.5h-93.9c-8.7,0-15.8,7.1-15.8,15.8v93.9c0,8.7,7.1,15.8,15.8,15.8h93.9c8.7,0,15.8-7.1,15.8-15.8
		v-93.9C-116.4,341.5-123.5,334.5-132.3,334.5z M-179.2,378.8c10.1,0,18.4,8.3,18.4,18.4c0,10.1-8.3,18.4-18.4,18.4
		c-10.1,0-18.4-8.3-18.4-18.4C-197.6,387.1-189.4,378.8-179.2,378.8z M-131,437.5c0,4.4-4.1,7.9-8.4,7.9h-79.2
		c-4.4,0-8.7-3.6-8.7-7.9v-39.6c0-4.4,4.4-8,8.7-8h4.4c0.8,0,1.6,0.4,2.2,1c0.5,0.6,0.8,1.5,0.7,2.3c-0.2,1.3-0.3,2.7-0.3,4
		c0,17.9,14.5,32.4,32.4,32.4c17.9,0,32.4-14.5,32.4-32.4c0-1.4-0.1-2.7-0.3-4c-0.1-0.8,0.1-1.7,0.7-2.3c0.6-0.6,1.3-1,2.2-1h4.7
		c4.4,0,8.4,3.6,8.4,8L-131,437.5L-131,437.5L-131,437.5z M-131,364.5L-131,364.5c0,4.4-3.5,7.9-7.9,7.9h-7.5
		c-4.4,0-7.9-3.5-7.9-7.9V357c0-4.4,3.5-7.9,7.9-7.9h7.5c4.4,0,7.9,3.5,7.9,7.9V364.5z"/>
</g>
</svg>
