<?xml version="1.0" encoding="utf-8"?>
<!-- Generator: Adobe Illustrator 19.1.0, SVG Export Plug-In . SVG Version: 6.00 Build 0)  -->
<svg version="1.1" id="Layer_1" xmlns="http://www.w3.org/2000/svg" xmlns:xlink="http://www.w3.org/1999/xlink" x="0px" y="0px"
	 viewBox="-227.4 247.3 126 126" style="enable-background:new -227.4 247.3 126 126;" xml:space="preserve">
<metadata><?xpacket begin="﻿" id="W5M0MpCehiHzreSzNTczkc9d"?>
<x:xmpmeta xmlns:x="adobe:ns:meta/" x:xmptk="Adobe XMP Core 5.6-c067 79.157747, 2015/03/30-23:40:42        ">
   <rdf:RDF xmlns:rdf="http://www.w3.org/1999/02/22-rdf-syntax-ns#">
      <rdf:Description rdf:about=""/>
   </rdf:RDF>
</x:xmpmeta>
                                                                                                    
                                                                                                    
                                                                                                    
                                                                                                    
                                                                                                    
                                                                                                    
                                                                                                    
                                                                                                    
                                                                                                    
                                                                                                    
                                                                                                    
                                                                                                    
                                                                                                    
                                                                                                    
                                                                                                    
                                                                                                    
                                                                                                    
                                                                                                    
                                                                                                    
                                                                                                    
                           
<?xpacket end="w"?></metadata>
<style type="text/css">
	.st0{clip-path:url(#SVGID_16_);fill:#FFFFFF;}
	.st1{clip-path:url(#SVGID_18_);fill:#FFFFFF;}
	.st2{clip-path:url(#SVGID_20_);fill:#FFFFFF;}
	.st3{clip-path:url(#SVGID_22_);fill:#FFFFFF;}
	.st4{clip-path:url(#SVGID_24_);fill:#FFFFFF;}
	.st5{clip-path:url(#SVGID_26_);fill:#FFFFFF;}
	.st6{clip-path:url(#SVGID_28_);fill:#FFFFFF;}
	.st7{clip-path:url(#SVGID_30_);fill:#FFFFFF;}
</style>
<g>
	<g>
		<defs>
			<rect id="SVGID_1_" x="-346" y="238.1" width="266.4" height="85.9"/>
		</defs>
		<clipPath id="SVGID_2_">
			<use xlink:href="#SVGID_1_"  style="overflow:visible;"/>
		</clipPath>
	</g>
	<g>
		<defs>
			<rect id="SVGID_3_" x="-346" y="238.1" width="266.4" height="85.9"/>
		</defs>
		<clipPath id="SVGID_4_">
			<use xlink:href="#SVGID_3_"  style="overflow:visible;"/>
		</clipPath>
	</g>
	<g>
		<defs>
			<rect id="SVGID_5_" x="-346" y="238.1" width="266.4" height="85.9"/>
		</defs>
		<clipPath id="SVGID_6_">
			<use xlink:href="#SVGID_5_"  style="overflow:visible;"/>
		</clipPath>
	</g>
	<g>
		<defs>
			<rect id="SVGID_7_" x="-346" y="238.1" width="266.4" height="85.9"/>
		</defs>
		<clipPath id="SVGID_8_">
			<use xlink:href="#SVGID_7_"  style="overflow:visible;"/>
		</clipPath>
	</g>
	<g>
		<defs>
			<rect id="SVGID_9_" x="-346" y="238.1" width="266.4" height="85.9"/>
		</defs>
		<clipPath id="SVGID_10_">
			<use xlink:href="#SVGID_9_"  style="overflow:visible;"/>
		</clipPath>
	</g>
	<g>
		<defs>
			<rect id="SVGID_11_" x="-346" y="238.1" width="266.4" height="85.9"/>
		</defs>
		<clipPath id="SVGID_12_">
			<use xlink:href="#SVGID_11_"  style="overflow:visible;"/>
		</clipPath>
	</g>
	<g>
		<defs>
			<rect id="SVGID_13_" x="-346" y="238.1" width="266.4" height="85.9"/>
		</defs>
		<clipPath id="SVGID_14_">
			<use xlink:href="#SVGID_13_"  style="overflow:visible;"/>
		</clipPath>
	</g>
</g>
<g>
	<g>
		<defs>
			<rect id="SVGID_15_" x="-346" y="238.1" width="266.4" height="85.9"/>
		</defs>
		<clipPath id="SVGID_16_">
			<use xlink:href="#SVGID_15_"  style="overflow:visible;"/>
		</clipPath>
		<path class="st0" d="M-224.9,306.3c-0.7-5.7,2.5-8.3,8.1-8.3c1.1,0,2.5,0.2,3.6,0.8c1.2,0.6,2,1.5,1.9,3.1s-1.4,2.6-3,2.6
			c-3.3,0-3.6-3.5-2.2-4.8c0.2-0.2,0-0.3-0.2-0.3s-0.4,0.1-0.5,0.1c-2.2,1.3-1.6,5.7,0.3,6.9h3v1.1h-3v12.3c0,1.8,0.2,2.8,2,2.9v0.8
			h-11.7v-0.8c1.6,0,2-1.1,2-2.3v-13h-2v-1.1C-226.6,306.3-224.9,306.3-224.9,306.3z"/>
	</g>
	<g>
		<defs>
			<rect id="SVGID_17_" x="-346" y="238.1" width="266.4" height="85.9"/>
		</defs>
		<clipPath id="SVGID_18_">
			<use xlink:href="#SVGID_17_"  style="overflow:visible;"/>
		</clipPath>
		<path class="st1" d="M-203,313.8v-5.7c0-0.5-0.8-0.8-1.4-0.8c-0.7,0-1.4,0.2-1.4,0.8v5.7H-203z M-205.8,315.4v4.6
			c0,1,1.3,1.4,2.3,1.4c2.6,0.2,5-1.4,6.9-3.7l0.8,0.6c-1.9,3.7-4.8,5.7-8.7,5.7c-5.5,0-9.9-3.1-9.9-9c0-5.5,4.4-9.2,9.7-9.2
			c5.5,0,8.8,4.1,8.8,9.6H-205.8z"/>
	</g>
	<g>
		<defs>
			<rect id="SVGID_19_" x="-346" y="238.1" width="266.4" height="85.9"/>
		</defs>
		<clipPath id="SVGID_20_">
			<use xlink:href="#SVGID_19_"  style="overflow:visible;"/>
		</clipPath>
		<path class="st2" d="M-193.8,317.5h1.6c0.2,3.1,3.7,4.3,5.9,4.3c0.9,0,2-0.4,2-1.5c0-1.8-3.5-2.4-4.8-2.7c-2.7-1-5.2-2.4-5.2-5.6
			c0-4.2,4.4-6.1,8.5-6.1c1.2,0,2.6,0.2,3.7,0.7c0.9,0.3,1.7,0.4,1.8-0.6h1.4v6.1h-0.8c-0.6-2.1-2.6-4.3-5.1-4.3
			c-0.9,0-2.4,0.4-2.5,1.6c-0.1,1.3,2.4,1.9,3.1,2.1c3.4,0.9,6.8,2.2,6.8,6c0,4.7-4.3,6.3-8.2,6.3c-1.7,0-3-0.3-4.6-1
			c-1.8-0.7-2.6-1.1-2.6,0.4h-0.9L-193.8,317.5L-193.8,317.5z"/>
	</g>
	<g>
		<defs>
			<rect id="SVGID_21_" x="-346" y="238.1" width="266.4" height="85.9"/>
		</defs>
		<clipPath id="SVGID_22_">
			<use xlink:href="#SVGID_21_"  style="overflow:visible;"/>
		</clipPath>
		<path class="st3" d="M-167.6,300.2v6.1h3.2v1.1h-3.2v11.4c0,0.7,0.1,1.6,1,1.6s1.7-0.9,2.3-2.3l0.9,0.3c-1,3.4-2.5,5.4-6.3,5.4
			c-3.2,0-5.4-1.4-5.4-4.8v-11.6h-2v-1.1h0.4c3.1,0,5.2-3.7,6.1-6.1C-170.6,300.2-167.6,300.2-167.6,300.2z"/>
	</g>
	<g>
		<defs>
			<rect id="SVGID_23_" x="-346" y="238.1" width="266.4" height="85.9"/>
		</defs>
		<clipPath id="SVGID_24_">
			<use xlink:href="#SVGID_23_"  style="overflow:visible;"/>
		</clipPath>
		<path class="st4" d="M-154.3,301.7c0,2.4-2.1,3.5-4.1,3.5s-4-1.1-4-3.5c0-2.4,2-3.6,3.9-3.6C-156.4,298-154.3,299.1-154.3,301.7
			 M-154.4,319.8c0,2.3,0.8,2.7,2,2.8v0.8H-164v-0.8c1.2,0,2-0.5,2-2.8V310c0-2-0.1-2.7-2-3v-0.8h9.5v13.6H-154.4z"/>
	</g>
	<g>
		<defs>
			<rect id="SVGID_25_" x="-346" y="238.1" width="266.4" height="85.9"/>
		</defs>
		<clipPath id="SVGID_26_">
			<use xlink:href="#SVGID_25_"  style="overflow:visible;"/>
		</clipPath>
		<path class="st5" d="M-153.1,306.3h11.6v0.8c-1.6,0-1.8,1-1.4,2.2l2.9,8l2.3-6.8c1-3.3-0.8-3.5-1.6-3.5v-0.8h6.8v0.9
			c-1.2,0.1-1.9,0.9-2.2,2l-5,14.3h-5.8l-4.8-12.8c-0.8-2.2-1.3-3.3-2.7-3.4v-0.9H-153.1z"/>
	</g>
	<g>
		<defs>
			<rect id="SVGID_27_" x="-346" y="238.1" width="266.4" height="85.9"/>
		</defs>
		<clipPath id="SVGID_28_">
			<use xlink:href="#SVGID_27_"  style="overflow:visible;"/>
		</clipPath>
		<path class="st6" d="M-124.9,314.8c-0.7,0-1.5,0.1-1.5,1.2v4.2c0,0.7,0.8,1,1.1,1c0.8-0.1,1.7-0.6,1.7-2v-4.4
			C-123.6,314.8-124.9,314.8-124.9,314.8z M-123.6,309.4c0-1.5-0.5-2-2-2.1c-0.8,0-1.7,0.1-2,0.4c1.8,1.9,0.9,5-2.2,5
			c-1.5,0-2.9-1.1-2.7-2.9c0.1-3.5,5.2-4.1,7.5-4.1c3.4,0,8.7,0.9,8.7,5.7v8c0,1.8,1.6,1.4,1.8,0.1h0.7c0,2.9-2.2,4.3-4.8,4.3
			c-1.9,0-3.4-0.7-4.1-2.3c-1.5,1.6-3.4,2.3-5.9,2.3c-2.6,0-4.9-1.7-4.9-4.7c0-5.3,6-5.9,10.2-6v-3.7H-123.6z"/>
	</g>
	<g>
		<defs>
			<rect id="SVGID_29_" x="-346" y="238.1" width="266.4" height="85.9"/>
		</defs>
		<clipPath id="SVGID_30_">
			<use xlink:href="#SVGID_29_"  style="overflow:visible;"/>
		</clipPath>
		<path class="st7" d="M-105.1,320c0,1.7,0.3,2.6,2,2.6v0.8h-11.5v-0.8c1.6-0.1,2-1,2-2.6v-16.8c0-2.9-0.7-3.2-2-3.3v-0.8
			c3.1,0,6.4-0.2,9.5-0.5V320z"/>
	</g>
</g>
</svg>
