<?xml version="1.0" encoding="utf-8"?>
<!-- Generator: Adobe Illustrator 19.1.0, SVG Export Plug-In . SVG Version: 6.00 Build 0)  -->
<svg version="1.1" id="Layer_1" xmlns="http://www.w3.org/2000/svg" xmlns:xlink="http://www.w3.org/1999/xlink" x="0px" y="0px"
	 viewBox="-293.5 382.4 29.6 29.6" style="enable-background:new -293.5 382.4 29.6 29.6;" xml:space="preserve">
<metadata><?xpacket begin="﻿" id="W5M0MpCehiHzreSzNTczkc9d"?>
<x:xmpmeta xmlns:x="adobe:ns:meta/" x:xmptk="Adobe XMP Core 5.6-c067 79.157747, 2015/03/30-23:40:42        ">
   <rdf:RDF xmlns:rdf="http://www.w3.org/1999/02/22-rdf-syntax-ns#">
      <rdf:Description rdf:about=""/>
   </rdf:RDF>
</x:xmpmeta>
                                                                                                    
                                                                                                    
                                                                                                    
                                                                                                    
                                                                                                    
                                                                                                    
                                                                                                    
                                                                                                    
                                                                                                    
                                                                                                    
                                                                                                    
                                                                                                    
                                                                                                    
                                                                                                    
                                                                                                    
                                                                                                    
                                                                                                    
                                                                                                    
                                                                                                    
                                                                                                    
                           
<?xpacket end="w"?></metadata>
<style type="text/css">
	.st0{clip-path:url(#SVGID_2_);fill:#FFFFFF;}
</style>
<g>
	<g>
		<defs>
			<rect id="SVGID_1_" x="-292" y="382.4" width="26.5" height="29.6"/>
		</defs>
		<clipPath id="SVGID_2_">
			<use xlink:href="#SVGID_1_"  style="overflow:visible;"/>
		</clipPath>
		<path class="st0" d="M-267.4,399.8c-2.4-1.4-5.5-1.1-8.1-1.9c-0.4-0.4-0.4-0.9,0-1.3c2.6-0.8,5.7-0.6,8.1-1.9
			c4.2-2.5,0.7-8.5-3.5-6.1c-2.4,1.4-3.6,4.3-5.7,6.1c-0.4,0.1-0.9-0.1-1-0.5c0.6-2.8,2.4-5.3,2.4-8c0-4.9-6.9-4.9-7,0
			c0,2.7,1.9,5.3,2.5,8c-0.2,0.4-0.6,0.6-1.1,0.5c-2-1.8-3.2-4.7-5.6-6.1c-4.4-2.5-8,3.5-3.6,6c2.4,1.4,5.4,1.1,8.1,1.9
			c0.3,0.4,0.3,0.9,0,1.3c-2.7,0.9-5.7,0.6-8.1,2c-4.3,2.4-0.8,8.5,3.5,6c2.4-1.3,3.6-4.2,5.6-6c0.6-0.1,0.9,0.1,1.1,0.5
			c-0.6,2.8-2.5,5.3-2.5,8c0.1,5,7,5,7,0c0.1-2.7-1.8-5.2-2.4-8c0.1-0.4,0.6-0.6,1-0.5c2.1,1.8,3.3,4.7,5.7,6
			C-266.8,408.3-263.2,402.2-267.4,399.8"/>
	</g>
</g>
</svg>
