<?xml version="1.0" encoding="utf-8"?>
<!-- Generator: Adobe Illustrator 19.1.0, SVG Export Plug-In . SVG Version: 6.00 Build 0)  -->
<svg version="1.1" id="Capa_1" xmlns="http://www.w3.org/2000/svg" xmlns:xlink="http://www.w3.org/1999/xlink" x="0px" y="0px"
	 viewBox="-282.7 -119.3 400 800" style="enable-background:new -282.7 -119.3 400 800;" xml:space="preserve">
<metadata><?xpacket begin="﻿" id="W5M0MpCehiHzreSzNTczkc9d"?>
<x:xmpmeta xmlns:x="adobe:ns:meta/" x:xmptk="Adobe XMP Core 5.6-c067 79.157747, 2015/03/30-23:40:42        ">
   <rdf:RDF xmlns:rdf="http://www.w3.org/1999/02/22-rdf-syntax-ns#">
      <rdf:Description rdf:about=""/>
   </rdf:RDF>
</x:xmpmeta>
                                                                                                    
                                                                                                    
                                                                                                    
                                                                                                    
                                                                                                    
                                                                                                    
                                                                                                    
                                                                                                    
                                                                                                    
                                                                                                    
                                                                                                    
                                                                                                    
                                                                                                    
                                                                                                    
                                                                                                    
                                                                                                    
                                                                                                    
                                                                                                    
                                                                                                    
                                                                                                    
                           
<?xpacket end="w"?></metadata>
<g>
	<g>
		<path d="M-264-30.7H98.7c9.4,0,17-7.7,17-17s-7.6-17-17-17H-264c-9.4,0-17,7.7-17,17S-273.4-30.7-264-30.7z"/>
		<path d="M-264,96.8H98.7c9.4,0,17-7.6,17-17s-7.6-17-17-17H-264c-9.4,0-17,7.6-17,17S-273.4,96.8-264,96.8z"/>
		<path d="M-264,224.3H98.7c9.4,0,17-7.6,17-17s-7.6-17-17-17H-264c-9.4,0-17,7.6-17,17S-273.4,224.3-264,224.3z"/>
	</g>
</g>
<g>
	<g>
		<path d="M-220.9,360.6L35.5,617.1c6.6,6.6,17.4,6.6,24,0s6.6-17.4,0-24l-256.4-256.4c-6.6-6.6-17.4-6.6-24,0
			S-227.5,354-220.9,360.6z"/>
		<path d="M39.5,341.6L-216.9,598c-6.6,6.6-6.6,17.4,0,24s17.4,6.6,24,0L63.6,365.6c6.6-6.6,6.6-17.4,0-24S46.1,335,39.5,341.6z"/>
	</g>
</g>
</svg>
