<?xml version="1.0" encoding="utf-8"?>
<!-- Generator: Adobe Illustrator 15.1.0, SVG Export Plug-In . SVG Version: 6.00 Build 0)  -->
<!DOCTYPE svg PUBLIC "-//W3C//DTD SVG 1.0//EN" "http://www.w3.org/TR/2001/REC-SVG-20010904/DTD/svg10.dtd">
<svg version="1.0" id="Layer_1" xmlns="http://www.w3.org/2000/svg" xmlns:xlink="http://www.w3.org/1999/xlink" x="0px" y="0px"
	 width="242px" height="41.494px" viewBox="0 0 242 41.494" enable-background="new 0 0 242 41.494" xml:space="preserve">
<g>
	<path fill="#170F37" d="M161.783,5.084v-0.06c0-3.283,2.383-5.024,5.405-5.024c3.022,0,5.404,1.741,5.404,5.004v0.061
		c0,3.863-2.682,5.284-5.404,5.284C164.465,10.349,161.783,8.928,161.783,5.084"/>
	<path fill="#170F37" d="M26.444,7.714c0.397-2.503,1.137-3.412,1.137-3.412h5.801v12.17h-6.313
		c-0.568-4.095-2.786-6.994-7.166-6.994c-5.459,0-8.018,5.629-8.018,11.487v2.218c0,9.212,1.933,12.34,6.938,12.34
		c1.877,0,3.185-0.397,4.322-1.08v-5.176c0-2.274-0.966-2.615-2.957-2.615h-0.796v-5.403h17.061v5.403h-0.228
		c-1.649,0-2.332,0.454-2.332,3.014v10.976h-6.88c0,0-0.625-0.854-1.081-3.355c-1.763,2.332-4.664,4.209-9.383,4.209
		C7.108,41.494,0,34.556,0,22.215v-0.113C0,10.785,7.791,3.505,17.572,3.505C22.634,3.505,25.022,4.984,26.444,7.714"/>
	<path fill="#170F37" d="M58.431,21.646c0-2.787-1.081-3.241-2.787-3.241H55.53v-5.857h13.933v20.757
		c0,1.649,0.341,2.275,2.559,2.275h0.682v5.061H60.478c0,0-1.479-2.331-1.479-5.402v-0.284c-1.479,3.925-4.436,6.37-9.668,6.37
		c-5.971,0-9.27-3.3-9.27-10.352v-9.326c0-2.616-0.739-3.241-2.446-3.241h-0.113v-5.857h13.591v18.197
		c0,3.071,1.024,4.493,3.355,4.493c2.559,0,3.981-2.161,3.981-6.938V21.646z"/>
	<path fill="#170F37" d="M83.806,28.243c0.342,5.005,2.958,6.711,8.247,6.711c2.843,0,5.289-0.683,7.108-1.422v3.753
		c-1.421,1.934-5.402,3.981-10.976,3.981c-9.725,0-15.583-5.118-15.583-14.672v-0.057c0-9.555,6.654-14.673,14.786-14.673
		c8.474,0,13.364,4.436,13.364,11.828c0,2.389-0.569,3.526-1.08,4.55H83.806z M90.858,23.921V23.58c0-4.947-0.853-7.052-3.184-7.052
		c-2.502,0-3.64,1.763-3.868,7.393H90.858z"/>
	<path fill="#170F37" d="M102.018,40.641V35.58h0.511c1.99,0,2.389-0.455,2.389-2.446V21.646c0-2.786-1.081-3.241-2.786-3.241
		h-0.114v-5.857h11.885c0,0,1.763,3.128,1.763,7.905v0.341c0.853-5.915,4.436-8.645,7.848-8.645c3.185,0,5.459,1.82,5.459,5.402
		c0,3.584-2.389,5.46-5.232,5.46c-2.559,0-4.151-1.479-4.777-2.958c-1.99,2.048-3.014,5.573-3.014,9.156v3.811
		c0,2.218,0.625,2.56,3.184,2.56h0.797v5.061H102.018z"/>
	<path fill="#170F37" d="M130.421,40.641V35.58h0.511c1.99,0,2.389-0.455,2.389-2.446V21.646c0-2.786-1.08-3.241-2.787-3.241h-0.113
		v-5.857h11.885c0,0,1.763,3.128,1.763,7.905v0.341c0.853-5.915,4.436-8.645,7.848-8.645c3.185,0,5.459,1.82,5.459,5.402
		c0,3.584-2.388,5.46-5.231,5.46c-2.56,0-4.152-1.479-4.777-2.958c-1.99,2.048-3.014,5.573-3.014,9.156v3.811
		c0,2.218,0.625,2.56,3.185,2.56h0.796v5.061H130.421z"/>
	<path fill="#170F37" d="M173.338,33.134c0,1.991,0.398,2.446,2.389,2.446h0.796v5.061h-17.117V35.58h0.511
		c1.99,0,2.388-0.455,2.388-2.446V21.646c0-2.787-1.08-3.241-2.787-3.241h-0.113v-5.857h13.932V33.134z"/>
	<path fill="#170F37" d="M228.238,36.262v-0.114c-1.195,3.186-3.925,5.232-8.246,5.232c-4.776,0-8.416-2.957-8.416-7.733v-0.058
		c0-3.924,2.274-6.256,7.847-7.563c5.062-1.193,8.701-2.104,8.701-5.801c0-2.104-1.137-3.64-3.64-3.64
		c-1.081,0-1.649,0.171-2.217,0.455v1.536c0,3.696-2.162,5.061-5.062,5.061c-2.615,0-4.378-1.876-4.378-4.151
		c0-5.231,6.369-7.62,12.51-7.62c10.179,0,13.592,4.266,13.592,12.056v8.303c0,2.445,0.739,3.186,2.218,3.186
		c0.285,0,0.456,0,0.854-0.058v3.413c-0.854,1.193-3.241,2.502-7.051,2.502C231.479,41.267,228.238,39.787,228.238,36.262
		 M227.896,31.542v-5.688c-0.854,1.252-2.161,1.82-2.958,2.389c-1.194,0.739-2.218,1.649-2.218,4.038v0.284
		c0,2.274,0.911,3.582,2.218,3.582C226.759,36.147,227.896,34.556,227.896,31.542"/>
	<path fill="#170F37" d="M179.508,36.238V11.606c0-2.731-1.059-3.176-2.731-3.176h-0.11V3.136h13.654v33.271"/>
	<path fill="#170F37" d="M190.318,7.538v24.633c0,2.731,1.058,3.176,2.731,3.176h0.11v5.295h-13.654V7.37"/>
	<path fill="#170F37" d="M196.619,36.238V11.606c0-2.731-1.058-3.176-2.731-3.176h-0.11V3.136h13.653v33.271"/>
	<path fill="#170F37" d="M207.429,7.538v24.633c0,2.731,1.059,3.176,2.732,3.176h0.11v5.295h-13.654V7.37"/>
</g>
</svg>
